<?xml version="1.0" encoding="utf-8"?>
<!-- Generator: Adobe Illustrator 26.4.1, SVG Export Plug-In . SVG Version: 6.00 Build 0)  -->
<svg version="1.1" id="Layer_1" xmlns="http://www.w3.org/2000/svg" xmlns:xlink="http://www.w3.org/1999/xlink" x="0px" y="0px"
	 viewBox="0 0 150 260" style="enable-background:new 0 0 150 260;" xml:space="preserve">
<g>
	<path d="M7.8,4.1c-3.6,0-5.8,3.3-4.3,6.2c0.7,1.4,2,2.6,3.3,3.7c41.3,37.3,82.5,74.6,123.9,111.7c3.4,3.1,3.8,5,0.2,8.2
		c-25.4,22.6-50.6,45.4-75.8,68.1C38.5,217,22,232,5.4,247c-2.1,1.9-3.6,4.3-1.4,7c2.3,2.9,5.1,2.1,7.4,0
		c10.6-9.4,21.1-18.8,31.6-28.3c32.8-29.5,65.6-59,98.4-88.6c0.7-0.7,1.5-1.3,2.2-2c4.4-4.2,4.5-6.3,0.1-10.3
		c-10.8-9.9-21.7-19.6-32.6-29.5C88.5,75,65.9,54.6,43.2,34.2c-9.9-8.9-19.8-17.8-29.8-26.6C11.7,6.1,10.1,4.3,7.8,4.1z"/>
</g>
</svg>
