<?xml version="1.0" encoding="utf-8"?>
<!-- Generator: Adobe Illustrator 26.4.1, SVG Export Plug-In . SVG Version: 6.00 Build 0)  -->
<svg version="1.1" id="Layer_1" xmlns="http://www.w3.org/2000/svg" xmlns:xlink="http://www.w3.org/1999/xlink" x="0px" y="0px"
	 viewBox="0 0 150 260" style="enable-background:new 0 0 150 260;" xml:space="preserve">
<g>
	<path d="M142.2,4.1c3.6,0,5.8,3.3,4.3,6.2c-0.7,1.4-2,2.6-3.3,3.7C101.9,51.3,60.7,88.6,19.3,125.8c-3.4,3.1-3.8,5-0.2,8.2
		c25.4,22.6,50.6,45.4,75.8,68.1C111.5,217,128,232,144.6,247c2.1,1.9,3.6,4.3,1.4,7c-2.3,2.9-5.1,2.1-7.4,0
		c-10.6-9.4-21.1-18.8-31.6-28.3c-32.8-29.5-65.6-59-98.4-88.6c-0.7-0.7-1.5-1.3-2.2-2c-4.4-4.2-4.5-6.3-0.1-10.3
		C17,115,27.9,105.2,38.8,95.4c22.6-20.4,45.3-40.8,68-61.1c9.9-8.9,19.8-17.8,29.8-26.6C138.3,6.1,139.9,4.3,142.2,4.1z"/>
</g>
</svg>
