<?xml version="1.0" encoding="utf-8"?>
<!-- Generator: Adobe Illustrator 26.4.1, SVG Export Plug-In . SVG Version: 6.00 Build 0)  -->
<svg version="1.1" id="Layer_1" xmlns="http://www.w3.org/2000/svg" xmlns:xlink="http://www.w3.org/1999/xlink" x="0px" y="0px"
	 viewBox="0 0 33.5 20.7" style="enable-background:new 0 0 33.5 20.7;" xml:space="preserve">
<style type="text/css">
	.st0{fill:#FFFFFF;}
</style>
<g>
	<path class="st0" d="M4.7,2C5.4,2,6,2.3,6.5,2.8c3.2,3.3,6.5,6.5,9.7,9.8c0.2,0.2,0.4,0.4,0.6,0.6c0.2,0.2,0.3,0.2,0.5,0
		c1.3-1.3,2.5-2.6,3.8-3.8c2.2-2.2,4.4-4.4,6.5-6.5c0.8-0.8,1.7-1,2.7-0.6c1,0.4,1.6,1.2,1.7,2.3c0,0.7-0.2,1.4-0.7,1.9
		c-1.7,1.7-3.4,3.4-5.1,5.1c-2.4,2.4-4.8,4.8-7.2,7.2c-1.2,1.2-2.7,1.2-3.9,0C11.1,14.6,7,10.5,2.9,6.4c-0.8-0.8-1-1.8-0.6-2.8
		C2.7,2.6,3.6,2,4.7,2z"/>
</g>
</svg>
